<?xml version="1.0" encoding="us-ascii" standalone="no"?><svg xmlns="http://www.w3.org/2000/svg" xmlns:xlink="http://www.w3.org/1999/xlink" contentStyleType="text/css" height="556px" preserveAspectRatio="none" style="width:388px;height:556px;background:#FFFFFF;" version="1.1" viewBox="0 0 388 556" width="388px" zoomAndPan="magnify"><defs/><g><!--cluster Data Source--><g id="cluster_Data Source"><path d="M6,16 C6,6 95,6 95,6 C95,6 184,6 184,16 L184,175.3 C184,185.3 95,185.3 95,185.3 C95,185.3 6,185.3 6,175.3 L6,16 " fill="none" style="stroke:#181818;stroke-width:1.0;"/><path d="M6,16 C6,26 95,26 95,26 C95,26 184,26 184,16 " fill="none" style="stroke:#181818;stroke-width:1.0;"/><text fill="#000000" font-family="sans-serif" font-size="14" font-weight="bold" lengthAdjust="spacing" textLength="96" x="47" y="40.9951">Data Source</text></g><!--cluster Excel--><g id="cluster_Excel"><rect fill="none" height="97.3" rx="2.5" ry="2.5" style="stroke:#181818;stroke-width:1.0;" width="130" x="30" y="64"/><path d="M81,64 L81,73.2969 L71,83.2969 L30,83.2969 " fill="none" style="stroke:#181818;stroke-width:1.0;"/><text fill="#000000" font-family="sans-serif" font-size="14" font-weight="bold" lengthAdjust="spacing" textLength="41" x="33" y="77.9951">Excel</text></g><!--cluster PowerBI Desktop--><g id="cluster_PowerBI Desktop"><path d="M22.5,209.3 L158.5,209.3 A3.75,3.75 0 0 1 161,211.8 L168,231.5969 L168.5,231.5969 A2.5,2.5 0 0 1 171,234.0969 L171,304.1 A2.5,2.5 0 0 1 168.5,306.6 L22.5,306.6 A2.5,2.5 0 0 1 20,304.1 L20,211.8 A2.5,2.5 0 0 1 22.5,209.3 " fill="none" style="stroke:#000000;stroke-width:1.5;"/><line style="stroke:#000000;stroke-width:1.5;" x1="20" x2="168" y1="231.5969" y2="231.5969"/><text fill="#000000" font-family="sans-serif" font-size="14" font-weight="bold" lengthAdjust="spacing" textLength="135" x="24" y="224.2951">PowerBI Desktop</text></g><!--cluster PowerBI Service--><g id="cluster_PowerBI Service"><path d="M17.9417,339.5348 C21.1776,333.426 27.8182,332.9224 31.45,339.0995 C35.1047,332.8485 39.7955,332.2508 44.3889,338.0954 C48.3461,332.5845 52.8917,333.3541 56.552,338.4363 C59.5438,332.5043 64.7406,331.835 69.3486,336.4811 C72.7614,329.0321 77.679,328.8538 82.2831,335.3783 C87.1366,329.5581 92.2269,330.2667 95.136,337.3196 C100.2305,330.9372 104.9812,332.0096 109.4075,338.0852 C113.6891,332.453 117.3861,332.4685 121.534,338.2275 C125.1844,331.2845 130.7738,332.6862 134.5932,338.0482 C138.8119,331.3268 145.2641,333.4864 147.8973,339.6814 C153.2751,344.0099 154.689,347.8668 148.3404,352.5976 C156.0072,357.1219 156.5143,362.4698 149.1855,367.8264 C155.5543,370.5589 155.6109,376.522 149.9421,380.0025 C155.548,385.2192 154.4111,389.8716 147.8713,393.1796 C155.751,397.1314 154.2146,404.0286 148.226,408.3056 C153.691,412.2209 153.5097,416.6567 147.595,419.9557 C144.0092,427.1442 139.3345,426.8811 134.4831,421.2501 C131.2601,427.2583 124.6547,428.4964 120.6409,422.135 C117.0973,428.656 111.5186,428.452 107.7146,422.4028 C104.0944,427.7807 100.2265,428.1772 95.7231,423.4511 C91.7672,429.9642 85.9628,430.7883 81.7934,423.6692 C76.7851,428.0856 72.7628,429.1335 69.3919,421.9227 C64.9955,428.6151 60.8931,428.9666 56.1951,422.2189 C52.368,428.1786 48.9445,428.4802 44.9004,422.4229 C40.105,428.5738 34.1977,429.1168 30.0031,421.7602 C26.8916,426.7164 21.3471,426.6884 18.4311,421.5364 C11.7257,416.8299 11.7331,412.0386 18.1387,407.0671 C11.3899,403.0709 10.9296,398.3377 17.3426,393.5655 C11.2042,391.2427 9.0963,385.4959 14.8774,380.8603 C9.6029,376.1107 8.7921,371.0395 16.0246,367.3521 C9.4064,362.5116 9.9744,356.7146 17.2787,353.0991 C11.5098,349.113 10.4647,342.8735 17.9417,339.5348 " fill="none" style="stroke:#181818;stroke-width:1.0;"/><text fill="#000000" font-family="sans-serif" font-size="14" font-weight="bold" lengthAdjust="spacing" textLength="129" x="17" y="356.5951">PowerBI Service</text></g><!--cluster PowerBI Report Server--><g id="cluster_PowerBI Report Server"><path d="M188.0167,340.6459 C191.6921,335.1137 195.8982,335.7589 199.7908,340.3945 C202.7877,333.466 208.8163,333.9976 212.3008,339.9197 C215.4038,332.8996 220.777,332.3542 225.9868,337.5617 C229.8246,331.1149 235.2361,332.2735 238.347,338.283 C241.6962,331.7118 247.1697,330.4364 252.4365,336.0691 C255.6832,328.5346 262.2325,328.6387 266.0325,335.5482 C269.8796,331.375 274.1359,330.7649 276.6944,336.8831 C281.1529,330.7612 286.0091,331.7153 290.0155,337.3935 C294.0983,328.9978 299.4895,329.6363 304.6909,336.3036 C308.7757,330.7048 312.685,331.6791 316.5369,336.5668 C320.9142,330.4298 325.5865,331.5623 328.9313,337.6166 C333.1821,332.0398 339.4021,333.3674 341.8,339.6305 C345.7112,332.3672 352.2426,332.3138 356.2198,339.5649 C359.8369,334.2114 363.5793,333.8073 367.1187,339.6406 C374.8442,341.4604 375.5351,347.1207 371.3167,352.7619 C379.1097,355.0358 379.8301,362.0965 373.7635,366.7881 C381.1914,370.5932 381.3852,374.8615 375.8849,380.6457 C380.681,385.5722 381.3819,390.3119 374.2014,393.6929 C381.1745,399.5588 379.9561,403.9997 372.1232,407.6632 C377.9924,413.3478 376.0662,418.4376 368.9409,421.0281 C364.9024,426.8866 358.0755,427.3443 354.4337,420.5725 C351.9067,425.9469 346.4046,427.5569 342.5308,422.0452 C339.2312,428.0799 332.7784,429.1753 328.4754,423.2217 C325.0317,428.7104 319.9447,427.9961 316.6644,423.0369 C313.3389,430.3639 308.4057,429.9665 303.8996,424.1867 C299.732,430.2152 293.2984,431.1728 289.5364,423.7534 C286.1802,429.3064 279.9868,430.0443 276.6739,423.7066 C272.7742,428.7092 268.5166,428.3192 265.4255,422.8389 C261.9794,430.4673 255.4186,431.2479 250.7091,424.0968 C247.3348,428.5772 242.3097,428.6538 239.9173,423.0463 C235.7305,428.1321 230.5306,428.1758 227.1588,422.1135 C223.9316,429.02 217.2706,429.7529 213.1003,423.0906 C208.7855,428.9488 203.0302,427.878 200.6328,421.186 C196.8577,427.3452 189.8171,428.4793 186.1362,421.0853 C178.4876,418.8312 179.0971,412.1473 184.0596,407.9061 C177.7491,405.0449 176.35,400.4765 180.761,394.8968 C174.0401,391.6984 171.6991,386.9387 177.72,380.9601 C172.2519,374.9838 174.3331,369.9375 181.3728,367.3078 C175.8166,361.3238 178.4404,356.5154 185.3883,354.4307 C179.2148,349.3958 180.051,342.9849 188.0167,340.6459 " fill="none" style="stroke:#181818;stroke-width:1.0;"/><text fill="#000000" font-family="sans-serif" font-size="14" font-weight="bold" lengthAdjust="spacing" textLength="181" x="186" y="356.5951">PowerBI Report Server</text></g><!--cluster Delivery--><g id="cluster_Delivery"><path d="M115.5,451.89 L180.5,451.89 A3.75,3.75 0 0 1 183,454.39 L190,474.1869 L214.5,474.1869 A2.5,2.5 0 0 1 217,476.6869 L217,546.69 A2.5,2.5 0 0 1 214.5,549.19 L115.5,549.19 A2.5,2.5 0 0 1 113,546.69 L113,454.39 A2.5,2.5 0 0 1 115.5,451.89 " fill="none" style="stroke:#000000;stroke-width:1.5;"/><line style="stroke:#000000;stroke-width:1.5;" x1="113" x2="190" y1="474.1869" y2="474.1869"/><text fill="#000000" font-family="sans-serif" font-size="14" font-weight="bold" lengthAdjust="spacing" textLength="64" x="117" y="466.8851">Delivery</text></g><!--entity baseline--><g id="elem_baseline"><rect fill="#F1F1F1" height="46.2969" rx="2.5" ry="2.5" style="stroke:#181818;stroke-width:0.5;" width="98" x="46" y="99"/><rect fill="#F1F1F1" height="10" style="stroke:#181818;stroke-width:0.5;" width="15" x="124" y="104"/><rect fill="#F1F1F1" height="2" style="stroke:#181818;stroke-width:0.5;" width="4" x="122" y="106"/><rect fill="#F1F1F1" height="2" style="stroke:#181818;stroke-width:0.5;" width="4" x="122" y="110"/><text fill="#000000" font-family="sans-serif" font-size="14" lengthAdjust="spacing" textLength="58" x="61" y="131.9951">baseline</text></g><!--entity Workspace--><g id="elem_Workspace"><rect fill="#F1F1F1" height="46.2969" rx="2.5" ry="2.5" style="stroke:#181818;stroke-width:0.5;" width="117" x="36.5" y="244.3"/><rect fill="#F1F1F1" height="10" style="stroke:#181818;stroke-width:0.5;" width="15" x="133.5" y="249.3"/><rect fill="#F1F1F1" height="2" style="stroke:#181818;stroke-width:0.5;" width="4" x="131.5" y="251.3"/><rect fill="#F1F1F1" height="2" style="stroke:#181818;stroke-width:0.5;" width="4" x="131.5" y="255.3"/><text fill="#000000" font-family="sans-serif" font-size="14" lengthAdjust="spacing" textLength="77" x="51.5" y="277.2951">Workspace</text></g><!--entity Service--><g id="elem_Service"><rect fill="#F1F1F1" height="46.2969" rx="2.5" ry="2.5" style="stroke:#181818;stroke-width:0.5;" width="90" x="48" y="365.6"/><rect fill="#F1F1F1" height="10" style="stroke:#181818;stroke-width:0.5;" width="15" x="118" y="370.6"/><rect fill="#F1F1F1" height="2" style="stroke:#181818;stroke-width:0.5;" width="4" x="116" y="372.6"/><rect fill="#F1F1F1" height="2" style="stroke:#181818;stroke-width:0.5;" width="4" x="116" y="376.6"/><text fill="#000000" font-family="sans-serif" font-size="14" lengthAdjust="spacing" textLength="50" x="63" y="398.5951">Service</text></g><!--entity Report--><g id="elem_Report"><rect fill="#F1F1F1" height="46.2969" rx="2.5" ry="2.5" style="stroke:#181818;stroke-width:0.5;" width="87" x="193.5" y="365.6"/><rect fill="#F1F1F1" height="10" style="stroke:#181818;stroke-width:0.5;" width="15" x="260.5" y="370.6"/><rect fill="#F1F1F1" height="2" style="stroke:#181818;stroke-width:0.5;" width="4" x="258.5" y="372.6"/><rect fill="#F1F1F1" height="2" style="stroke:#181818;stroke-width:0.5;" width="4" x="258.5" y="376.6"/><text fill="#000000" font-family="sans-serif" font-size="14" lengthAdjust="spacing" textLength="47" x="208.5" y="398.5951">Report</text></g><!--entity User--><g id="elem_User"><rect fill="#F1F1F1" height="46.2969" rx="2.5" ry="2.5" style="stroke:#181818;stroke-width:0.5;" width="72" x="129" y="486.89"/><rect fill="#F1F1F1" height="10" style="stroke:#181818;stroke-width:0.5;" width="15" x="181" y="491.89"/><rect fill="#F1F1F1" height="2" style="stroke:#181818;stroke-width:0.5;" width="4" x="179" y="493.89"/><rect fill="#F1F1F1" height="2" style="stroke:#181818;stroke-width:0.5;" width="4" x="179" y="497.89"/><text fill="#000000" font-family="sans-serif" font-size="14" lengthAdjust="spacing" textLength="32" x="144" y="519.8851">User</text></g><!--link baseline to Workspace--><g id="link_baseline_Workspace"><path d="M95,145.54 C95,172.46 95,211.36 95,238.21 " fill="none" id="baseline-to-Workspace" style="stroke:#181818;stroke-width:1.0;"/><polygon fill="#181818" points="95,244.21,99,235.21,95,239.21,91,235.21,95,244.21" style="stroke:#181818;stroke-width:1.0;"/></g><!--link Workspace to Service--><g id="link_Workspace_Service"><path d="M94.62,290.89 C94.27,312.22 93.8314,338.1109 93.4714,359.4109 " fill="none" id="Workspace-to-Service" style="stroke:#181818;stroke-width:1.0;"/><polygon fill="#181818" points="93.37,365.41,97.5215,356.4789,93.4545,360.4107,89.5227,356.3437,93.37,365.41" style="stroke:#181818;stroke-width:1.0;"/></g><!--link Workspace to Report--><g id="link_Workspace_Report"><path d="M121.71,290.89 C147.1,312.22 180.4663,340.2502 205.8163,361.5502 " fill="none" id="Workspace-to-Report" style="stroke:#181818;stroke-width:1.0;"/><polygon fill="#181818" points="210.41,365.41,206.0927,356.5579,206.5819,362.1935,200.9463,362.6828,210.41,365.41" style="stroke:#181818;stroke-width:1.0;"/></g><!--link Service to User--><g id="link_Service_User"><path d="M106.54,412.18 C119.42,433.51 135.5696,460.2732 148.4196,481.5632 " fill="none" id="Service-to-User" style="stroke:#181818;stroke-width:1.0;"/><polygon fill="#181818" points="151.52,486.7,150.2939,476.9278,148.9363,482.4193,143.4448,481.0617,151.52,486.7" style="stroke:#181818;stroke-width:1.0;"/></g><!--link Report to User--><g id="link_Report_User"><path d="M223.46,412.18 C210.58,433.51 194.4304,460.2732 181.5804,481.5632 " fill="none" id="Report-to-User" style="stroke:#181818;stroke-width:1.0;"/><polygon fill="#181818" points="178.48,486.7,186.5552,481.0617,181.0637,482.4193,179.7061,476.9278,178.48,486.7" style="stroke:#181818;stroke-width:1.0;"/></g><!--SRC=[PO-z3i8m38JtF8NLlQ_0WCh0XgWGGzKXf0PL2QHoMdw4ykwu3MdusUBptNTE8tjva0uXA_W5fHr8OGPF0N0aUMPzTLTeWW9GZLxJNh3cqGilEgcqFB5jOsz8opKKw7Hlkn2ezfQqOm_xlKXXoFF5rr8PEpG9KY9TstW7LEznPFmOjzXPwYS_KhG7SMfC5Q5o9lrjOcZ-KC6dClGHgJk7D34Z8-I27ECVsWi0]--></g></svg>