<?xml version="1.0" encoding="us-ascii" standalone="no"?><svg xmlns="http://www.w3.org/2000/svg" xmlns:xlink="http://www.w3.org/1999/xlink" contentStyleType="text/css" height="187px" preserveAspectRatio="none" style="width:906px;height:187px;background:#FFFFFF;" version="1.1" viewBox="0 0 906 187" width="906px" zoomAndPan="magnify"><defs/><g><!--class Class01--><g id="elem_Class01"><rect fill="#F1F1F1" height="48" id="Class01" rx="2.5" ry="2.5" style="stroke:#181818;stroke-width:0.5;" width="87" x="7" y="7"/><ellipse cx="22" cy="23" fill="#ADD1B2" rx="11" ry="11" style="stroke:#181818;stroke-width:1.0;"/><path d="M24.9688,28.6406 Q24.3906,28.9375 23.75,29.0781 Q23.1094,29.2344 22.4063,29.2344 Q19.9063,29.2344 18.5781,27.5938 Q17.2656,25.9375 17.2656,22.8125 Q17.2656,19.6875 18.5781,18.0313 Q19.9063,16.375 22.4063,16.375 Q23.1094,16.375 23.75,16.5313 Q24.4063,16.6875 24.9688,16.9844 L24.9688,19.7031 Q24.3438,19.125 23.75,18.8594 Q23.1563,18.5781 22.5313,18.5781 Q21.1875,18.5781 20.5,19.6563 Q19.8125,20.7188 19.8125,22.8125 Q19.8125,24.9063 20.5,25.9844 Q21.1875,27.0469 22.5313,27.0469 Q23.1563,27.0469 23.75,26.7813 Q24.3438,26.5 24.9688,25.9219 L24.9688,28.6406 Z " fill="#000000"/><text fill="#000000" font-family="sans-serif" font-size="14" lengthAdjust="spacing" textLength="55" x="36" y="27.8467">Class01</text><line style="stroke:#181818;stroke-width:0.5;" x1="8" x2="93" y1="39" y2="39"/><line style="stroke:#181818;stroke-width:0.5;" x1="8" x2="93" y1="47" y2="47"/></g><!--class Class02--><g id="elem_Class02"><rect fill="#F1F1F1" height="48" id="Class02" rx="2.5" ry="2.5" style="stroke:#181818;stroke-width:0.5;" width="87" x="7" y="132"/><ellipse cx="22" cy="148" fill="#ADD1B2" rx="11" ry="11" style="stroke:#181818;stroke-width:1.0;"/><path d="M24.9688,153.6406 Q24.3906,153.9375 23.75,154.0781 Q23.1094,154.2344 22.4063,154.2344 Q19.9063,154.2344 18.5781,152.5938 Q17.2656,150.9375 17.2656,147.8125 Q17.2656,144.6875 18.5781,143.0313 Q19.9063,141.375 22.4063,141.375 Q23.1094,141.375 23.75,141.5313 Q24.4063,141.6875 24.9688,141.9844 L24.9688,144.7031 Q24.3438,144.125 23.75,143.8594 Q23.1563,143.5781 22.5313,143.5781 Q21.1875,143.5781 20.5,144.6563 Q19.8125,145.7188 19.8125,147.8125 Q19.8125,149.9063 20.5,150.9844 Q21.1875,152.0469 22.5313,152.0469 Q23.1563,152.0469 23.75,151.7813 Q24.3438,151.5 24.9688,150.9219 L24.9688,153.6406 Z " fill="#000000"/><text fill="#000000" font-family="sans-serif" font-size="14" lengthAdjust="spacing" textLength="55" x="36" y="152.8467">Class02</text><line style="stroke:#181818;stroke-width:0.5;" x1="8" x2="93" y1="164" y2="164"/><line style="stroke:#181818;stroke-width:0.5;" x1="8" x2="93" y1="172" y2="172"/></g><!--class Class03--><g id="elem_Class03"><rect fill="#F1F1F1" height="48" id="Class03" rx="2.5" ry="2.5" style="stroke:#181818;stroke-width:0.5;" width="87" x="195" y="7"/><ellipse cx="210" cy="23" fill="#ADD1B2" rx="11" ry="11" style="stroke:#181818;stroke-width:1.0;"/><path d="M212.9688,28.6406 Q212.3906,28.9375 211.75,29.0781 Q211.1094,29.2344 210.4063,29.2344 Q207.9063,29.2344 206.5781,27.5938 Q205.2656,25.9375 205.2656,22.8125 Q205.2656,19.6875 206.5781,18.0313 Q207.9063,16.375 210.4063,16.375 Q211.1094,16.375 211.75,16.5313 Q212.4063,16.6875 212.9688,16.9844 L212.9688,19.7031 Q212.3438,19.125 211.75,18.8594 Q211.1563,18.5781 210.5313,18.5781 Q209.1875,18.5781 208.5,19.6563 Q207.8125,20.7188 207.8125,22.8125 Q207.8125,24.9063 208.5,25.9844 Q209.1875,27.0469 210.5313,27.0469 Q211.1563,27.0469 211.75,26.7813 Q212.3438,26.5 212.9688,25.9219 L212.9688,28.6406 Z " fill="#000000"/><text fill="#000000" font-family="sans-serif" font-size="14" lengthAdjust="spacing" textLength="55" x="224" y="27.8467">Class03</text><line style="stroke:#181818;stroke-width:0.5;" x1="196" x2="281" y1="39" y2="39"/><line style="stroke:#181818;stroke-width:0.5;" x1="196" x2="281" y1="47" y2="47"/></g><!--class Class04--><g id="elem_Class04"><rect fill="#F1F1F1" height="48" id="Class04" rx="2.5" ry="2.5" style="stroke:#181818;stroke-width:0.5;" width="87" x="195" y="132"/><ellipse cx="210" cy="148" fill="#ADD1B2" rx="11" ry="11" style="stroke:#181818;stroke-width:1.0;"/><path d="M212.9688,153.6406 Q212.3906,153.9375 211.75,154.0781 Q211.1094,154.2344 210.4063,154.2344 Q207.9063,154.2344 206.5781,152.5938 Q205.2656,150.9375 205.2656,147.8125 Q205.2656,144.6875 206.5781,143.0313 Q207.9063,141.375 210.4063,141.375 Q211.1094,141.375 211.75,141.5313 Q212.4063,141.6875 212.9688,141.9844 L212.9688,144.7031 Q212.3438,144.125 211.75,143.8594 Q211.1563,143.5781 210.5313,143.5781 Q209.1875,143.5781 208.5,144.6563 Q207.8125,145.7188 207.8125,147.8125 Q207.8125,149.9063 208.5,150.9844 Q209.1875,152.0469 210.5313,152.0469 Q211.1563,152.0469 211.75,151.7813 Q212.3438,151.5 212.9688,150.9219 L212.9688,153.6406 Z " fill="#000000"/><text fill="#000000" font-family="sans-serif" font-size="14" lengthAdjust="spacing" textLength="55" x="224" y="152.8467">Class04</text><line style="stroke:#181818;stroke-width:0.5;" x1="196" x2="281" y1="164" y2="164"/><line style="stroke:#181818;stroke-width:0.5;" x1="196" x2="281" y1="172" y2="172"/></g><!--class Class05--><g id="elem_Class05"><rect fill="#F1F1F1" height="48" id="Class05" rx="2.5" ry="2.5" style="stroke:#181818;stroke-width:0.5;" width="87" x="317" y="7"/><ellipse cx="332" cy="23" fill="#ADD1B2" rx="11" ry="11" style="stroke:#181818;stroke-width:1.0;"/><path d="M334.9688,28.6406 Q334.3906,28.9375 333.75,29.0781 Q333.1094,29.2344 332.4063,29.2344 Q329.9063,29.2344 328.5781,27.5938 Q327.2656,25.9375 327.2656,22.8125 Q327.2656,19.6875 328.5781,18.0313 Q329.9063,16.375 332.4063,16.375 Q333.1094,16.375 333.75,16.5313 Q334.4063,16.6875 334.9688,16.9844 L334.9688,19.7031 Q334.3438,19.125 333.75,18.8594 Q333.1563,18.5781 332.5313,18.5781 Q331.1875,18.5781 330.5,19.6563 Q329.8125,20.7188 329.8125,22.8125 Q329.8125,24.9063 330.5,25.9844 Q331.1875,27.0469 332.5313,27.0469 Q333.1563,27.0469 333.75,26.7813 Q334.3438,26.5 334.9688,25.9219 L334.9688,28.6406 Z " fill="#000000"/><text fill="#000000" font-family="sans-serif" font-size="14" lengthAdjust="spacing" textLength="55" x="346" y="27.8467">Class05</text><line style="stroke:#181818;stroke-width:0.5;" x1="318" x2="403" y1="39" y2="39"/><line style="stroke:#181818;stroke-width:0.5;" x1="318" x2="403" y1="47" y2="47"/></g><!--class Class06--><g id="elem_Class06"><rect fill="#F1F1F1" height="48" id="Class06" rx="2.5" ry="2.5" style="stroke:#181818;stroke-width:0.5;" width="87" x="317" y="132"/><ellipse cx="332" cy="148" fill="#ADD1B2" rx="11" ry="11" style="stroke:#181818;stroke-width:1.0;"/><path d="M334.9688,153.6406 Q334.3906,153.9375 333.75,154.0781 Q333.1094,154.2344 332.4063,154.2344 Q329.9063,154.2344 328.5781,152.5938 Q327.2656,150.9375 327.2656,147.8125 Q327.2656,144.6875 328.5781,143.0313 Q329.9063,141.375 332.4063,141.375 Q333.1094,141.375 333.75,141.5313 Q334.4063,141.6875 334.9688,141.9844 L334.9688,144.7031 Q334.3438,144.125 333.75,143.8594 Q333.1563,143.5781 332.5313,143.5781 Q331.1875,143.5781 330.5,144.6563 Q329.8125,145.7188 329.8125,147.8125 Q329.8125,149.9063 330.5,150.9844 Q331.1875,152.0469 332.5313,152.0469 Q333.1563,152.0469 333.75,151.7813 Q334.3438,151.5 334.9688,150.9219 L334.9688,153.6406 Z " fill="#000000"/><text fill="#000000" font-family="sans-serif" font-size="14" lengthAdjust="spacing" textLength="55" x="346" y="152.8467">Class06</text><line style="stroke:#181818;stroke-width:0.5;" x1="318" x2="403" y1="164" y2="164"/><line style="stroke:#181818;stroke-width:0.5;" x1="318" x2="403" y1="172" y2="172"/></g><!--class Class07--><g id="elem_Class07"><rect fill="#F1F1F1" height="48" id="Class07" rx="2.5" ry="2.5" style="stroke:#181818;stroke-width:0.5;" width="87" x="439" y="7"/><ellipse cx="454" cy="23" fill="#ADD1B2" rx="11" ry="11" style="stroke:#181818;stroke-width:1.0;"/><path d="M456.9688,28.6406 Q456.3906,28.9375 455.75,29.0781 Q455.1094,29.2344 454.4063,29.2344 Q451.9063,29.2344 450.5781,27.5938 Q449.2656,25.9375 449.2656,22.8125 Q449.2656,19.6875 450.5781,18.0313 Q451.9063,16.375 454.4063,16.375 Q455.1094,16.375 455.75,16.5313 Q456.4063,16.6875 456.9688,16.9844 L456.9688,19.7031 Q456.3438,19.125 455.75,18.8594 Q455.1563,18.5781 454.5313,18.5781 Q453.1875,18.5781 452.5,19.6563 Q451.8125,20.7188 451.8125,22.8125 Q451.8125,24.9063 452.5,25.9844 Q453.1875,27.0469 454.5313,27.0469 Q455.1563,27.0469 455.75,26.7813 Q456.3438,26.5 456.9688,25.9219 L456.9688,28.6406 Z " fill="#000000"/><text fill="#000000" font-family="sans-serif" font-size="14" lengthAdjust="spacing" textLength="55" x="468" y="27.8467">Class07</text><line style="stroke:#181818;stroke-width:0.5;" x1="440" x2="525" y1="39" y2="39"/><line style="stroke:#181818;stroke-width:0.5;" x1="440" x2="525" y1="47" y2="47"/></g><!--class Class08--><g id="elem_Class08"><rect fill="#F1F1F1" height="48" id="Class08" rx="2.5" ry="2.5" style="stroke:#181818;stroke-width:0.5;" width="87" x="439" y="132"/><ellipse cx="454" cy="148" fill="#ADD1B2" rx="11" ry="11" style="stroke:#181818;stroke-width:1.0;"/><path d="M456.9688,153.6406 Q456.3906,153.9375 455.75,154.0781 Q455.1094,154.2344 454.4063,154.2344 Q451.9063,154.2344 450.5781,152.5938 Q449.2656,150.9375 449.2656,147.8125 Q449.2656,144.6875 450.5781,143.0313 Q451.9063,141.375 454.4063,141.375 Q455.1094,141.375 455.75,141.5313 Q456.4063,141.6875 456.9688,141.9844 L456.9688,144.7031 Q456.3438,144.125 455.75,143.8594 Q455.1563,143.5781 454.5313,143.5781 Q453.1875,143.5781 452.5,144.6563 Q451.8125,145.7188 451.8125,147.8125 Q451.8125,149.9063 452.5,150.9844 Q453.1875,152.0469 454.5313,152.0469 Q455.1563,152.0469 455.75,151.7813 Q456.3438,151.5 456.9688,150.9219 L456.9688,153.6406 Z " fill="#000000"/><text fill="#000000" font-family="sans-serif" font-size="14" lengthAdjust="spacing" textLength="55" x="468" y="152.8467">Class08</text><line style="stroke:#181818;stroke-width:0.5;" x1="440" x2="525" y1="164" y2="164"/><line style="stroke:#181818;stroke-width:0.5;" x1="440" x2="525" y1="172" y2="172"/></g><!--class Class09--><g id="elem_Class09"><rect fill="#F1F1F1" height="48" id="Class09" rx="2.5" ry="2.5" style="stroke:#181818;stroke-width:0.5;" width="87" x="561" y="7"/><ellipse cx="576" cy="23" fill="#ADD1B2" rx="11" ry="11" style="stroke:#181818;stroke-width:1.0;"/><path d="M578.9688,28.6406 Q578.3906,28.9375 577.75,29.0781 Q577.1094,29.2344 576.4063,29.2344 Q573.9063,29.2344 572.5781,27.5938 Q571.2656,25.9375 571.2656,22.8125 Q571.2656,19.6875 572.5781,18.0313 Q573.9063,16.375 576.4063,16.375 Q577.1094,16.375 577.75,16.5313 Q578.4063,16.6875 578.9688,16.9844 L578.9688,19.7031 Q578.3438,19.125 577.75,18.8594 Q577.1563,18.5781 576.5313,18.5781 Q575.1875,18.5781 574.5,19.6563 Q573.8125,20.7188 573.8125,22.8125 Q573.8125,24.9063 574.5,25.9844 Q575.1875,27.0469 576.5313,27.0469 Q577.1563,27.0469 577.75,26.7813 Q578.3438,26.5 578.9688,25.9219 L578.9688,28.6406 Z " fill="#000000"/><text fill="#000000" font-family="sans-serif" font-size="14" lengthAdjust="spacing" textLength="55" x="590" y="27.8467">Class09</text><line style="stroke:#181818;stroke-width:0.5;" x1="562" x2="647" y1="39" y2="39"/><line style="stroke:#181818;stroke-width:0.5;" x1="562" x2="647" y1="47" y2="47"/></g><!--class Class10--><g id="elem_Class10"><rect fill="#F1F1F1" height="48" id="Class10" rx="2.5" ry="2.5" style="stroke:#181818;stroke-width:0.5;" width="87" x="561" y="132"/><ellipse cx="576" cy="148" fill="#ADD1B2" rx="11" ry="11" style="stroke:#181818;stroke-width:1.0;"/><path d="M578.9688,153.6406 Q578.3906,153.9375 577.75,154.0781 Q577.1094,154.2344 576.4063,154.2344 Q573.9063,154.2344 572.5781,152.5938 Q571.2656,150.9375 571.2656,147.8125 Q571.2656,144.6875 572.5781,143.0313 Q573.9063,141.375 576.4063,141.375 Q577.1094,141.375 577.75,141.5313 Q578.4063,141.6875 578.9688,141.9844 L578.9688,144.7031 Q578.3438,144.125 577.75,143.8594 Q577.1563,143.5781 576.5313,143.5781 Q575.1875,143.5781 574.5,144.6563 Q573.8125,145.7188 573.8125,147.8125 Q573.8125,149.9063 574.5,150.9844 Q575.1875,152.0469 576.5313,152.0469 Q577.1563,152.0469 577.75,151.7813 Q578.3438,151.5 578.9688,150.9219 L578.9688,153.6406 Z " fill="#000000"/><text fill="#000000" font-family="sans-serif" font-size="14" lengthAdjust="spacing" textLength="55" x="590" y="152.8467">Class10</text><line style="stroke:#181818;stroke-width:0.5;" x1="562" x2="647" y1="164" y2="164"/><line style="stroke:#181818;stroke-width:0.5;" x1="562" x2="647" y1="172" y2="172"/></g><!--class Class11--><g id="elem_Class11"><rect fill="#F1F1F1" height="48" id="Class11" rx="2.5" ry="2.5" style="stroke:#181818;stroke-width:0.5;" width="87" x="683" y="7"/><ellipse cx="698" cy="23" fill="#ADD1B2" rx="11" ry="11" style="stroke:#181818;stroke-width:1.0;"/><path d="M700.9688,28.6406 Q700.3906,28.9375 699.75,29.0781 Q699.1094,29.2344 698.4063,29.2344 Q695.9063,29.2344 694.5781,27.5938 Q693.2656,25.9375 693.2656,22.8125 Q693.2656,19.6875 694.5781,18.0313 Q695.9063,16.375 698.4063,16.375 Q699.1094,16.375 699.75,16.5313 Q700.4063,16.6875 700.9688,16.9844 L700.9688,19.7031 Q700.3438,19.125 699.75,18.8594 Q699.1563,18.5781 698.5313,18.5781 Q697.1875,18.5781 696.5,19.6563 Q695.8125,20.7188 695.8125,22.8125 Q695.8125,24.9063 696.5,25.9844 Q697.1875,27.0469 698.5313,27.0469 Q699.1563,27.0469 699.75,26.7813 Q700.3438,26.5 700.9688,25.9219 L700.9688,28.6406 Z " fill="#000000"/><text fill="#000000" font-family="sans-serif" font-size="14" lengthAdjust="spacing" textLength="55" x="712" y="27.8467">Class11</text><line style="stroke:#181818;stroke-width:0.5;" x1="684" x2="769" y1="39" y2="39"/><line style="stroke:#181818;stroke-width:0.5;" x1="684" x2="769" y1="47" y2="47"/></g><!--class Class12--><g id="elem_Class12"><rect fill="#F1F1F1" height="48" id="Class12" rx="2.5" ry="2.5" style="stroke:#181818;stroke-width:0.5;" width="87" x="683" y="132"/><ellipse cx="698" cy="148" fill="#ADD1B2" rx="11" ry="11" style="stroke:#181818;stroke-width:1.0;"/><path d="M700.9688,153.6406 Q700.3906,153.9375 699.75,154.0781 Q699.1094,154.2344 698.4063,154.2344 Q695.9063,154.2344 694.5781,152.5938 Q693.2656,150.9375 693.2656,147.8125 Q693.2656,144.6875 694.5781,143.0313 Q695.9063,141.375 698.4063,141.375 Q699.1094,141.375 699.75,141.5313 Q700.4063,141.6875 700.9688,141.9844 L700.9688,144.7031 Q700.3438,144.125 699.75,143.8594 Q699.1563,143.5781 698.5313,143.5781 Q697.1875,143.5781 696.5,144.6563 Q695.8125,145.7188 695.8125,147.8125 Q695.8125,149.9063 696.5,150.9844 Q697.1875,152.0469 698.5313,152.0469 Q699.1563,152.0469 699.75,151.7813 Q700.3438,151.5 700.9688,150.9219 L700.9688,153.6406 Z " fill="#000000"/><text fill="#000000" font-family="sans-serif" font-size="14" lengthAdjust="spacing" textLength="55" x="712" y="152.8467">Class12</text><line style="stroke:#181818;stroke-width:0.5;" x1="684" x2="769" y1="164" y2="164"/><line style="stroke:#181818;stroke-width:0.5;" x1="684" x2="769" y1="172" y2="172"/></g><!--reverse link Class01 to Class02--><g id="link_Class01_Class02"><path codeLine="1" d="M48.1609,67.4478 C47.6009,76.6478 47.77,75.33 47.5,85 C47.06,100.56 47.81,118.06 48.67,131.67 " fill="none" id="Class01-backto-Class02" style="stroke:#181818;stroke-width:1.0;"/><polygon fill="#181818" points="48.89,55.47,44.5328,61.2159,48.1609,67.4478,52.5181,61.7019,48.89,55.47" style="stroke:#181818;stroke-width:1.0;"/><text fill="#000000" font-family="sans-serif" font-size="13" lengthAdjust="spacing" textLength="146" x="48.5" y="98.0669">composition (contains)</text><text fill="#000000" font-family="sans-serif" font-size="13" lengthAdjust="spacing" textLength="8" x="39.5927" y="74.9453">1</text><text fill="#000000" font-family="sans-serif" font-size="13" lengthAdjust="spacing" textLength="36" x="7.8364" y="120.9945">many</text></g><!--reverse link Class03 to Class04--><g id="link_Class03_Class04"><path codeLine="2" d="M238.5,67.42 C238.5,89.31 238.5,109.8 238.5,131.66 " fill="none" id="Class03-backto-Class04" style="stroke:#181818;stroke-width:1.0;"/><polygon fill="none" points="238.5,55.42,234.5,61.42,238.5,67.42,242.5,61.42,238.5,55.42" style="stroke:#181818;stroke-width:1.0;"/><text fill="#000000" font-family="sans-serif" font-size="13" lengthAdjust="spacing" textLength="77" x="239.5" y="98.0669">aggregation</text></g><!--link Class05 to Class06--><g id="link_Class05_Class06"><path codeLine="3" d="M360.5,55.42 C360.5,77.31 360.5,103.8 360.5,125.66 " fill="none" id="Class05-to-Class06" style="stroke:#181818;stroke-width:1.0;"/><polygon fill="#181818" points="360.5,131.66,364.5,122.66,360.5,126.66,356.5,122.66,360.5,131.66" style="stroke:#181818;stroke-width:1.0;"/><text fill="#000000" font-family="sans-serif" font-size="13" lengthAdjust="spacing" textLength="72" x="361.5" y="98.0669">association</text><text fill="#000000" font-family="sans-serif" font-size="13" lengthAdjust="spacing" textLength="8" x="351.525" y="120.9821">1</text></g><!--reverse link Class07 to Class08--><g id="link_Class07_Class08"><path codeLine="4" d="M482.5,73.42 C482.5,95.31 482.5,109.8 482.5,131.66 " fill="none" id="Class07-backto-Class08" style="stroke:#181818;stroke-width:1.0;"/><polygon fill="none" points="482.5,55.42,476.5,73.42,488.5,73.42,482.5,55.42" style="stroke:#181818;stroke-width:1.0;"/><text fill="#000000" font-family="sans-serif" font-size="13" lengthAdjust="spacing" textLength="71" x="483.5" y="98.0669">inheritance</text></g><!--link Class09 to Class10--><g id="link_Class09_Class10"><path codeLine="5" d="M603.96,55.48 C603.78,64.68 603.59,75.34 603.5,85 C603.35,100.56 603.4722,112.0614 603.7622,125.6714 " fill="none" id="Class09-to-Class10" style="stroke:#181818;stroke-width:1.0;stroke-dasharray:7.0,7.0;"/><polygon fill="#181818" points="603.89,131.67,607.6974,122.5868,603.7835,126.6711,599.6992,122.7573,603.89,131.67" style="stroke:#181818;stroke-width:1.0;"/><text fill="#000000" font-family="sans-serif" font-size="13" lengthAdjust="spacing" textLength="78" x="604.5" y="98.0669">dependency</text><text fill="#000000" font-family="sans-serif" font-size="13" lengthAdjust="spacing" textLength="8" x="594.7663" y="120.9945">1</text></g><!--reverse link Class11 to Class12--><g id="link_Class11_Class12"><path codeLine="6" d="M726.5,73.42 C726.5,95.31 726.5,109.8 726.5,131.66 " fill="none" id="Class11-backto-Class12" style="stroke:#181818;stroke-width:1.0;stroke-dasharray:7.0,7.0;"/><polygon fill="none" points="726.5,55.42,720.5,73.42,732.5,73.42,726.5,55.42" style="stroke:#181818;stroke-width:1.0;"/><text fill="#000000" font-family="sans-serif" font-size="13" lengthAdjust="spacing" textLength="171" x="727.5" y="98.0669">realisation/implementation</text></g><!--SRC=[JSzD2iCW40NWVKynk6eBsjZ_bj9DJY9cI0VY63BP17huQWmbktd3vrFhpebK5fHLiDSQL70yAQZdzH6Uu6Feez18aM7h8u-EM7QR0auGqvaodnDsRJjWwp9Un0MqVi_j9L-p4ecUrke6h- -_w9u8yGS76XrxNCW3Z5aLsIgf1dla1jbF1LcRUenPH7xzWAuZcQywKEWx39X-aECF]--></g></svg>