<?xml version="1.0" encoding="UTF-8" standalone="no"?>
<!DOCTYPE svg PUBLIC "-//W3C//DTD SVG 1.1//EN"
 "http://www.w3.org/Graphics/SVG/1.1/DTD/svg11.dtd">
<!-- Generated by graphviz version 9.0.0 (20230911.1827)
 -->
<!-- Title: G Pages: 1 -->
<svg width="851pt" height="884pt"
 viewBox="0.00 0.00 851.00 884.00" xmlns="http://www.w3.org/2000/svg" xmlns:xlink="http://www.w3.org/1999/xlink">
<g id="graph0" class="graph" transform="scale(1 1) rotate(0) translate(4 880)">
<title>G</title>
<polygon fill="white" stroke="none" points="-4,4 -4,-880 847,-880 847,4 -4,4"/>
<g id="clust1" class="cluster">
<title>cluster_0</title>
<polygon fill="lightgrey" stroke="lightgrey" points="8,-394 8,-813 108,-813 108,-394 8,-394"/>
<text text-anchor="middle" x="58" y="-795.7" font-family="Helvetica,Arial,sans-serif" font-size="14.00">Remote Repo</text>
</g>
<g id="clust2" class="cluster">
<title>cluster_1</title>
<polygon fill="none" stroke="blue" points="116,-8 116,-813 335,-813 335,-8 116,-8"/>
<text text-anchor="middle" x="225.5" y="-795.7" font-family="Helvetica,Arial,sans-serif" font-size="14.00">Local Staging</text>
</g>
<g id="clust3" class="cluster">
<title>cluster_6</title>
<polygon fill="none" stroke="blue" points="132,-101 132,-492 216,-492 216,-101 132,-101"/>
<text text-anchor="middle" x="174" y="-474.7" font-family="Helvetica,Arial,sans-serif" font-size="14.00">Branch dev</text>
</g>
<g id="clust4" class="cluster">
<title>cluster_5</title>
<polygon fill="none" stroke="blue" points="235,-101 235,-609 327,-609 327,-101 235,-101"/>
<text text-anchor="middle" x="281" y="-591.7" font-family="Helvetica,Arial,sans-serif" font-size="14.00">Branch main</text>
</g>
<g id="clust5" class="cluster">
<title>cluster_4</title>
<polygon fill="none" stroke="orange" points="442,-93 442,-361 835,-361 835,-93 442,-93"/>
<text text-anchor="middle" x="638.5" y="-343.7" font-family="Helvetica,Arial,sans-serif" font-size="14.00">Working</text>
</g>
<g id="clust6" class="cluster">
<title>cluster_3</title>
<polygon fill="none" stroke="yellow" points="450,-232 450,-330 736,-330 736,-232 450,-232"/>
<text text-anchor="middle" x="593" y="-312.7" font-family="Helvetica,Arial,sans-serif" font-size="14.00">Tracked</text>
</g>
<g id="clust7" class="cluster">
<title>cluster_2</title>
<polygon fill="none" stroke="red" points="450,-101 450,-199 827,-199 827,-101 450,-101"/>
<text text-anchor="middle" x="638.5" y="-181.7" font-family="Helvetica,Arial,sans-serif" font-size="14.00">Untracked</text>
</g>
<!-- R0 -->
<g id="node1" class="node">
<title>R0</title>
<ellipse fill="white" stroke="white" cx="73" cy="-741" rx="27" ry="18"/>
<text text-anchor="middle" x="73" y="-735.2" font-family="Helvetica,Arial,sans-serif" font-size="14.00">R0</text>
</g>
<!-- R1 -->
<g id="node2" class="node">
<title>R1</title>
<ellipse fill="white" stroke="white" cx="71" cy="-668" rx="27" ry="18"/>
<text text-anchor="middle" x="71" y="-662.2" font-family="Helvetica,Arial,sans-serif" font-size="14.00">R1</text>
</g>
<!-- R0&#45;&gt;R1 -->
<g id="edge1" class="edge">
<title>R0&#45;&gt;R1</title>
<path fill="none" stroke="black" d="M72.52,-722.81C72.3,-715.14 72.04,-705.89 71.8,-697.24"/>
<polygon fill="black" stroke="black" points="75.3,-697.44 71.52,-687.54 68.31,-697.64 75.3,-697.44"/>
</g>
<!-- S0 -->
<g id="node5" class="node">
<title>S0</title>
<ellipse fill="lightgrey" stroke="black" cx="186" cy="-741" rx="27" ry="18"/>
<text text-anchor="middle" x="186" y="-735.2" font-family="Helvetica,Arial,sans-serif" font-size="14.00">S0</text>
</g>
<!-- R0&#45;&gt;S0 -->
<g id="edge21" class="edge">
<title>R0&#45;&gt;S0</title>
<path fill="none" stroke="black" d="M100.35,-741C114.41,-741 131.77,-741 147.19,-741"/>
<polygon fill="black" stroke="black" points="146.99,-744.5 156.99,-741 146.99,-737.5 146.99,-744.5"/>
<text text-anchor="middle" x="129.5" y="-745.7" font-family="Helvetica,Arial,sans-serif" font-size="14.00">git pull</text>
</g>
<!-- R2 -->
<g id="node3" class="node">
<title>R2</title>
<ellipse fill="white" stroke="white" cx="71" cy="-537" rx="27" ry="18"/>
<text text-anchor="middle" x="71" y="-531.2" font-family="Helvetica,Arial,sans-serif" font-size="14.00">R2</text>
</g>
<!-- R1&#45;&gt;R2 -->
<g id="edge2" class="edge">
<title>R1&#45;&gt;R2</title>
<path fill="none" stroke="black" d="M71,-649.6C71,-628.33 71,-592.01 71,-566.61"/>
<polygon fill="black" stroke="black" points="74.5,-566.64 71,-556.64 67.5,-566.64 74.5,-566.64"/>
</g>
<!-- R3 -->
<g id="node4" class="node">
<title>R3</title>
<ellipse fill="white" stroke="white" cx="71" cy="-420" rx="27" ry="18"/>
<text text-anchor="middle" x="71" y="-414.2" font-family="Helvetica,Arial,sans-serif" font-size="14.00">R3</text>
</g>
<!-- R2&#45;&gt;R3 -->
<g id="edge3" class="edge">
<title>R2&#45;&gt;R3</title>
<path fill="none" stroke="black" d="M71,-518.53C71,-500.28 71,-471.33 71,-449.7"/>
<polygon fill="black" stroke="black" points="74.5,-449.77 71,-439.77 67.5,-449.77 74.5,-449.77"/>
</g>
<!-- S1 -->
<g id="node6" class="node">
<title>S1</title>
<ellipse fill="lightgrey" stroke="black" cx="190" cy="-668" rx="27" ry="18"/>
<text text-anchor="middle" x="190" y="-662.2" font-family="Helvetica,Arial,sans-serif" font-size="14.00">S1</text>
</g>
<!-- S0&#45;&gt;S1 -->
<g id="edge4" class="edge">
<title>S0&#45;&gt;S1</title>
<path fill="none" stroke="black" d="M186.97,-722.81C187.4,-715.14 187.92,-705.89 188.41,-697.24"/>
<polygon fill="black" stroke="black" points="191.89,-697.72 188.96,-687.54 184.9,-697.33 191.89,-697.72"/>
</g>
<!-- S1&#45;&gt;R1 -->
<g id="edge22" class="edge">
<title>S1&#45;&gt;R1</title>
<path fill="none" stroke="black" d="M162.83,-668C147.13,-668 127.12,-668 109.79,-668"/>
<polygon fill="black" stroke="black" points="109.81,-664.5 99.81,-668 109.81,-671.5 109.81,-664.5"/>
<text text-anchor="middle" x="130.5" y="-672.7" font-family="Helvetica,Arial,sans-serif" font-size="14.00">git push</text>
</g>
<!-- D1 -->
<g id="node7" class="node">
<title>D1</title>
<ellipse fill="lightgrey" stroke="black" cx="171" cy="-420" rx="27" ry="18"/>
<text text-anchor="middle" x="171" y="-414.2" font-family="Helvetica,Arial,sans-serif" font-size="14.00">D1</text>
</g>
<!-- S1&#45;&gt;D1 -->
<g id="edge5" class="edge">
<title>S1&#45;&gt;D1</title>
<path fill="none" stroke="black" d="M175.08,-652.84C164.78,-641.97 151.94,-625.98 146.25,-609 127.82,-553.98 146.51,-485.6 159.93,-448.34"/>
<polygon fill="black" stroke="black" points="163.11,-449.83 163.35,-439.24 156.55,-447.37 163.11,-449.83"/>
<text text-anchor="middle" x="189.38" y="-531.2" font-family="Helvetica,Arial,sans-serif" font-size="14.00">git branch dev</text>
</g>
<!-- M1 -->
<g id="node8" class="node">
<title>M1</title>
<ellipse fill="lightgrey" stroke="black" cx="282" cy="-537" rx="27" ry="18"/>
<text text-anchor="middle" x="282" y="-531.2" font-family="Helvetica,Arial,sans-serif" font-size="14.00">M1</text>
</g>
<!-- S1&#45;&gt;M1 -->
<g id="edge6" class="edge">
<title>S1&#45;&gt;M1</title>
<path fill="none" stroke="black" d="M207.33,-653.76C220.64,-642.88 238.76,-626.47 251,-609 260.23,-595.83 267.59,-579.48 272.83,-565.79"/>
<polygon fill="black" stroke="black" points="276.09,-567.06 276.2,-556.47 269.51,-564.68 276.09,-567.06"/>
<text text-anchor="middle" x="290.5" y="-618.7" font-family="Helvetica,Arial,sans-serif" font-size="14.00">git branch main</text>
</g>
<!-- D2 -->
<g id="node12" class="node">
<title>D2</title>
<ellipse fill="lightgrey" stroke="black" cx="173" cy="-258" rx="27" ry="18"/>
<text text-anchor="middle" x="173" y="-252.2" font-family="Helvetica,Arial,sans-serif" font-size="14.00">D2</text>
</g>
<!-- D1&#45;&gt;D2 -->
<g id="edge9" class="edge">
<title>D1&#45;&gt;D2</title>
<path fill="none" stroke="black" d="M171.22,-401.57C171.56,-374.16 172.23,-320.69 172.64,-287.59"/>
<polygon fill="black" stroke="black" points="176.14,-287.96 172.76,-277.92 169.14,-287.87 176.14,-287.96"/>
</g>
<!-- M2 -->
<g id="node13" class="node">
<title>M2</title>
<ellipse fill="lightgrey" stroke="black" cx="288" cy="-420" rx="27" ry="18"/>
<text text-anchor="middle" x="288" y="-414.2" font-family="Helvetica,Arial,sans-serif" font-size="14.00">M2</text>
</g>
<!-- M1&#45;&gt;M2 -->
<g id="edge11" class="edge">
<title>M1&#45;&gt;M2</title>
<path fill="none" stroke="black" d="M282.91,-518.53C283.86,-500.28 285.37,-471.33 286.5,-449.7"/>
<polygon fill="black" stroke="black" points="290,-449.93 287.02,-439.77 283,-449.57 290,-449.93"/>
</g>
<!-- D3 -->
<g id="node9" class="node">
<title>D3</title>
<ellipse fill="lightgrey" stroke="black" cx="174" cy="-127" rx="27" ry="18"/>
<text text-anchor="middle" x="174" y="-121.2" font-family="Helvetica,Arial,sans-serif" font-size="14.00">D3</text>
</g>
<!-- S2 -->
<g id="node10" class="node">
<title>S2</title>
<ellipse fill="lightgrey" stroke="black" cx="214" cy="-34" rx="27" ry="18"/>
<text text-anchor="middle" x="214" y="-28.2" font-family="Helvetica,Arial,sans-serif" font-size="14.00">S2</text>
</g>
<!-- D3&#45;&gt;S2 -->
<g id="edge7" class="edge">
<title>D3&#45;&gt;S2</title>
<path fill="none" stroke="black" d="M177.39,-108.82C180,-97.47 184.15,-82.44 190,-70 191.6,-66.6 193.51,-63.17 195.55,-59.85"/>
<polygon fill="black" stroke="black" points="198.39,-61.9 201.03,-51.64 192.57,-58.02 198.39,-61.9"/>
<text text-anchor="middle" x="218.5" y="-71.7" font-family="Helvetica,Arial,sans-serif" font-size="14.00">git merge</text>
</g>
<!-- M4 -->
<g id="node11" class="node">
<title>M4</title>
<ellipse fill="lightgrey" stroke="black" cx="292" cy="-127" rx="27" ry="18"/>
<text text-anchor="middle" x="292" y="-121.2" font-family="Helvetica,Arial,sans-serif" font-size="14.00">M4</text>
</g>
<!-- M4&#45;&gt;S2 -->
<g id="edge8" class="edge">
<title>M4&#45;&gt;S2</title>
<path fill="none" stroke="black" d="M280.1,-110.52C271.2,-99.13 258.63,-83.36 247,-70 243.58,-66.07 239.86,-61.97 236.2,-58.03"/>
<polygon fill="black" stroke="black" points="238.84,-55.73 229.43,-50.85 233.74,-60.53 238.84,-55.73"/>
<text text-anchor="middle" x="286.5" y="-71.7" font-family="Helvetica,Arial,sans-serif" font-size="14.00">git merge</text>
</g>
<!-- D2&#45;&gt;D3 -->
<g id="edge10" class="edge">
<title>D2&#45;&gt;D3</title>
<path fill="none" stroke="black" d="M173.13,-239.6C173.3,-218.33 173.58,-182.01 173.78,-156.61"/>
<polygon fill="black" stroke="black" points="177.28,-156.66 173.86,-146.64 170.28,-156.61 177.28,-156.66"/>
</g>
<!-- M3 -->
<g id="node14" class="node">
<title>M3</title>
<ellipse fill="lightgrey" stroke="black" cx="292" cy="-258" rx="27" ry="18"/>
<text text-anchor="middle" x="292" y="-252.2" font-family="Helvetica,Arial,sans-serif" font-size="14.00">M3</text>
</g>
<!-- M2&#45;&gt;M3 -->
<g id="edge12" class="edge">
<title>M2&#45;&gt;M3</title>
<path fill="none" stroke="black" d="M288.44,-401.57C289.12,-374.16 290.46,-320.69 291.29,-287.59"/>
<polygon fill="black" stroke="black" points="294.78,-288 291.53,-277.92 287.78,-287.83 294.78,-288"/>
</g>
<!-- M3&#45;&gt;M4 -->
<g id="edge13" class="edge">
<title>M3&#45;&gt;M4</title>
<path fill="none" stroke="black" d="M292,-239.6C292,-218.33 292,-182.01 292,-156.61"/>
<polygon fill="black" stroke="black" points="295.5,-156.64 292,-146.64 288.5,-156.64 295.5,-156.64"/>
</g>
<!-- T0 -->
<g id="node15" class="node">
<title>T0</title>
<ellipse fill="lightgrey" stroke="black" cx="485" cy="-258" rx="27" ry="18"/>
<text text-anchor="middle" x="485" y="-252.2" font-family="Helvetica,Arial,sans-serif" font-size="14.00">T0</text>
</g>
<!-- M3&#45;&gt;T0 -->
<g id="edge23" class="edge">
<title>M3&#45;&gt;T0</title>
<path fill="none" stroke="black" d="M319.24,-258C352.48,-258 408.9,-258 446.55,-258"/>
<polygon fill="black" stroke="black" points="446.07,-261.5 456.07,-258 446.07,-254.5 446.07,-261.5"/>
<text text-anchor="middle" x="388.5" y="-262.7" font-family="Helvetica,Arial,sans-serif" font-size="14.00">git checkout main</text>
</g>
<!-- T2 -->
<g id="node17" class="node">
<title>T2</title>
<ellipse fill="lightgrey" stroke="black" cx="629" cy="-258" rx="27" ry="18"/>
<text text-anchor="middle" x="629" y="-252.2" font-family="Helvetica,Arial,sans-serif" font-size="14.00">T2</text>
</g>
<!-- M3&#45;&gt;T2 -->
<g id="edge24" class="edge">
<title>M3&#45;&gt;T2</title>
<path fill="none" stroke="black" d="M308.54,-272.34C335.27,-294.44 390.59,-335.92 446,-351.42 508.92,-369.01 539.13,-388.39 593,-351.42 613.8,-337.14 622.58,-309.03 626.29,-287.36"/>
<polygon fill="black" stroke="black" points="629.74,-288 627.67,-277.61 622.81,-287.02 629.74,-288"/>
<text text-anchor="middle" x="532" y="-370.7" font-family="Helvetica,Arial,sans-serif" font-size="14.00">git checkout main</text>
</g>
<!-- T3 -->
<g id="node18" class="node">
<title>T3</title>
<ellipse fill="lightgrey" stroke="black" cx="557" cy="-258" rx="27" ry="18"/>
<text text-anchor="middle" x="557" y="-252.2" font-family="Helvetica,Arial,sans-serif" font-size="14.00">T3</text>
</g>
<!-- M3&#45;&gt;T3 -->
<g id="edge25" class="edge">
<title>M3&#45;&gt;T3</title>
<path fill="none" stroke="black" d="M308.54,-272.34C335.27,-294.44 390.59,-335.92 446,-351.42 478.1,-360.39 493.52,-370.28 521,-351.42 541.8,-337.14 550.58,-309.03 554.29,-287.36"/>
<polygon fill="black" stroke="black" points="557.74,-288 555.67,-277.61 550.81,-287.02 557.74,-288"/>
<text text-anchor="middle" x="421" y="-370.7" font-family="Helvetica,Arial,sans-serif" font-size="14.00">git checkout main</text>
</g>
<!-- T0&#45;&gt;M4 -->
<g id="edge26" class="edge">
<title>T0&#45;&gt;M4</title>
<path fill="none" stroke="black" d="M457.95,-254.88C430.57,-251.58 388.1,-243.21 358,-222 333.74,-204.9 315.38,-175.91 304.26,-154.63"/>
<polygon fill="black" stroke="black" points="307.52,-153.34 299.92,-145.96 301.26,-156.47 307.52,-153.34"/>
<text text-anchor="middle" x="389.5" y="-208.7" font-family="Helvetica,Arial,sans-serif" font-size="14.00">git commit</text>
</g>
<!-- T1 -->
<g id="node16" class="node">
<title>T1</title>
<ellipse fill="lightgrey" stroke="black" cx="701" cy="-258" rx="27" ry="18"/>
<text text-anchor="middle" x="701" y="-252.2" font-family="Helvetica,Arial,sans-serif" font-size="14.00">T1</text>
</g>
<!-- T1&#45;&gt;M4 -->
<g id="edge27" class="edge">
<title>T1&#45;&gt;M4</title>
<path fill="none" stroke="black" d="M684.82,-243.05C678.95,-238.75 672.02,-234.5 665,-232 610.83,-212.7 590.25,-241.06 536,-222 524.83,-218.08 525.08,-211.14 514,-207 485.5,-196.34 475.29,-207.25 446,-199 400.62,-186.22 351.76,-161.65 321.53,-145.04"/>
<polygon fill="black" stroke="black" points="323.41,-142.08 312.97,-140.27 320,-148.19 323.41,-142.08"/>
<text text-anchor="middle" x="567.5" y="-208.7" font-family="Helvetica,Arial,sans-serif" font-size="14.00">git commit</text>
</g>
<!-- U2 -->
<g id="node20" class="node">
<title>U2</title>
<ellipse fill="lightgrey" stroke="black" cx="485" cy="-127" rx="27" ry="18"/>
<text text-anchor="middle" x="485" y="-121.2" font-family="Helvetica,Arial,sans-serif" font-size="14.00">U2</text>
</g>
<!-- T2&#45;&gt;U2 -->
<g id="edge17" class="edge">
<title>T2&#45;&gt;U2</title>
<path fill="none" stroke="black" d="M624.65,-239.74C620.87,-228.5 614.19,-214.56 603,-207 572.66,-186.5 551.23,-219.66 521,-199 506.45,-189.06 497.46,-171.41 492.11,-156.19"/>
<polygon fill="black" stroke="black" points="495.45,-155.16 489.14,-146.65 488.77,-157.24 495.45,-155.16"/>
<text text-anchor="middle" x="633.25" y="-208.7" font-family="Helvetica,Arial,sans-serif" font-size="14.00">git rm</text>
</g>
<!-- T3&#45;&gt;M4 -->
<g id="edge28" class="edge">
<title>T3&#45;&gt;M4</title>
<path fill="none" stroke="black" d="M540.72,-243.3C534.84,-239.03 527.94,-234.73 521,-232 491.75,-220.51 480.65,-232.42 451,-222 437.27,-217.18 363.06,-171.93 321.05,-146.01"/>
<polygon fill="black" stroke="black" points="323,-143.1 312.65,-140.82 319.32,-149.06 323,-143.1"/>
<text text-anchor="middle" x="482.5" y="-208.7" font-family="Helvetica,Arial,sans-serif" font-size="14.00">git commit</text>
</g>
<!-- U0 -->
<g id="node19" class="node">
<title>U0</title>
<ellipse fill="lightgrey" stroke="black" cx="741" cy="-127" rx="27" ry="18"/>
<text text-anchor="middle" x="741" y="-121.2" font-family="Helvetica,Arial,sans-serif" font-size="14.00">U0</text>
</g>
<!-- U0&#45;&gt;U0 -->
<g id="edge15" class="edge">
<title>U0&#45;&gt;U0</title>
<path fill="none" stroke="black" d="M764.61,-136.05C775.97,-137.17 786,-134.15 786,-127 786,-122.42 781.88,-119.53 775.94,-118.34"/>
<polygon fill="black" stroke="black" points="776.24,-114.85 766.13,-118 776,-121.85 776.24,-114.85"/>
<text text-anchor="middle" x="802.5" y="-121.2" font-family="Helvetica,Arial,sans-serif" font-size="14.00">touch</text>
</g>
<!-- U3 -->
<g id="node21" class="node">
<title>U3</title>
<ellipse fill="lightgrey" stroke="black" cx="557" cy="-127" rx="27" ry="18"/>
<text text-anchor="middle" x="557" y="-121.2" font-family="Helvetica,Arial,sans-serif" font-size="14.00">U3</text>
</g>
<!-- U1 -->
<g id="node22" class="node">
<title>U1</title>
<ellipse fill="lightgrey" stroke="black" cx="629" cy="-127" rx="27" ry="18"/>
<text text-anchor="middle" x="629" y="-121.2" font-family="Helvetica,Arial,sans-serif" font-size="14.00">U1</text>
</g>
<!-- U1&#45;&gt;T1 -->
<g id="edge16" class="edge">
<title>U1&#45;&gt;T1</title>
<path fill="none" stroke="black" d="M638.04,-144.21C650.18,-165.94 671.87,-204.81 686.35,-230.75"/>
<polygon fill="black" stroke="black" points="683.21,-232.31 691.14,-239.34 689.33,-228.9 683.21,-232.31"/>
<text text-anchor="middle" x="699.25" y="-208.7" font-family="Helvetica,Arial,sans-serif" font-size="14.00">git add</text>
</g>
<!-- U1&#45;&gt;U1 -->
<g id="edge14" class="edge">
<title>U1&#45;&gt;U1</title>
<path fill="none" stroke="black" d="M652.61,-136.05C663.97,-137.17 674,-134.15 674,-127 674,-122.42 669.88,-119.53 663.94,-118.34"/>
<polygon fill="black" stroke="black" points="664.24,-114.85 654.13,-118 664,-121.85 664.24,-114.85"/>
<text text-anchor="middle" x="684.88" y="-121.2" font-family="Helvetica,Arial,sans-serif" font-size="14.00">edit</text>
</g>
<!-- start -->
<g id="node23" class="node">
<title>start</title>
<polygon fill="none" stroke="black" points="186,-876 146.48,-858 186,-840 225.52,-858 186,-876"/>
<polyline fill="none" stroke="black" points="157.4,-862.97 157.4,-853.03"/>
<polyline fill="none" stroke="black" points="175.08,-844.97 196.92,-844.97"/>
<polyline fill="none" stroke="black" points="214.6,-853.03 214.6,-862.97"/>
<polyline fill="none" stroke="black" points="196.92,-871.03 175.08,-871.03"/>
<text text-anchor="middle" x="186" y="-852.2" font-family="Helvetica,Arial,sans-serif" font-size="14.00">start</text>
</g>
<!-- start&#45;&gt;R0 -->
<g id="edge18" class="edge">
<title>start&#45;&gt;R0</title>
<path fill="none" stroke="black" d="M166.13,-848.76C150.01,-841.29 127.48,-829.01 112,-813 99.85,-800.43 90.3,-783.32 83.7,-769.05"/>
<polygon fill="black" stroke="black" points="87.04,-767.96 79.83,-760.2 80.63,-770.77 87.04,-767.96"/>
</g>
<!-- start&#45;&gt;S0 -->
<g id="edge19" class="edge">
<title>start&#45;&gt;S0</title>
<path fill="none" stroke="black" d="M186,-839.53C186,-821.28 186,-792.33 186,-770.7"/>
<polygon fill="black" stroke="black" points="189.5,-770.77 186,-760.77 182.5,-770.77 189.5,-770.77"/>
</g>
<!-- start&#45;&gt;T0 -->
<g id="edge20" class="edge">
<title>start&#45;&gt;T0</title>
<path fill="none" stroke="black" d="M223.78,-856.69C258.76,-854.27 309.65,-844.96 339,-813 360.75,-789.31 353,-774.16 353,-742 353,-742 353,-742 353,-419 353,-354.76 417.09,-302.36 455.96,-276.49"/>
<polygon fill="black" stroke="black" points="457.47,-279.68 463.97,-271.31 453.67,-273.8 457.47,-279.68"/>
</g>
</g>
</svg>
