<?xml version="1.0" encoding="us-ascii" standalone="no"?><svg xmlns="http://www.w3.org/2000/svg" xmlns:xlink="http://www.w3.org/1999/xlink" contentStyleType="text/css" height="780px" preserveAspectRatio="none" style="width:184px;height:780px;background:#FFFFFF;" version="1.1" viewBox="0 0 184 780" width="184px" zoomAndPan="magnify"><defs/><g><!--class Capacity--><g id="elem_Capacity"><rect fill="#F1F1F1" height="96.8906" id="Capacity" rx="2.5" ry="2.5" style="stroke:#181818;stroke-width:0.5;" width="90" x="21.5" y="7"/><ellipse cx="36.5" cy="23" fill="#ADD1B2" rx="11" ry="11" style="stroke:#181818;stroke-width:1.0;"/><path d="M39.4688,28.6406 Q38.8906,28.9375 38.25,29.0781 Q37.6094,29.2344 36.9063,29.2344 Q34.4063,29.2344 33.0781,27.5938 Q31.7656,25.9375 31.7656,22.8125 Q31.7656,19.6875 33.0781,18.0313 Q34.4063,16.375 36.9063,16.375 Q37.6094,16.375 38.25,16.5313 Q38.9063,16.6875 39.4688,16.9844 L39.4688,19.7031 Q38.8438,19.125 38.25,18.8594 Q37.6563,18.5781 37.0313,18.5781 Q35.6875,18.5781 35,19.6563 Q34.3125,20.7188 34.3125,22.8125 Q34.3125,24.9063 35,25.9844 Q35.6875,27.0469 37.0313,27.0469 Q37.6563,27.0469 38.25,26.7813 Q38.8438,26.5 39.4688,25.9219 L39.4688,28.6406 Z " fill="#000000"/><text fill="#000000" font-family="sans-serif" font-size="14" lengthAdjust="spacing" textLength="58" x="50.5" y="27.8467">Capacity</text><line style="stroke:#181818;stroke-width:0.5;" x1="22.5" x2="110.5" y1="39" y2="39"/><text fill="#000000" font-family="sans-serif" font-size="14" lengthAdjust="spacing" textLength="26" x="27.5" y="55.9951">cpu</text><text fill="#000000" font-family="sans-serif" font-size="14" lengthAdjust="spacing" textLength="56" x="27.5" y="72.292">memory</text><text fill="#000000" font-family="sans-serif" font-size="14" lengthAdjust="spacing" textLength="53" x="27.5" y="88.5889">storage</text><line style="stroke:#181818;stroke-width:0.5;" x1="22.5" x2="110.5" y1="95.8906" y2="95.8906"/></g><!--class Workspace--><g id="elem_Workspace"><rect fill="#F1F1F1" height="48" id="Workspace" rx="2.5" ry="2.5" style="stroke:#181818;stroke-width:0.5;" width="109" x="12" y="164.89"/><ellipse cx="27" cy="180.89" fill="#ADD1B2" rx="11" ry="11" style="stroke:#181818;stroke-width:1.0;"/><path d="M29.9688,186.5306 Q29.3906,186.8275 28.75,186.9681 Q28.1094,187.1244 27.4063,187.1244 Q24.9063,187.1244 23.5781,185.4838 Q22.2656,183.8275 22.2656,180.7025 Q22.2656,177.5775 23.5781,175.9213 Q24.9063,174.265 27.4063,174.265 Q28.1094,174.265 28.75,174.4213 Q29.4063,174.5775 29.9688,174.8744 L29.9688,177.5931 Q29.3438,177.015 28.75,176.7494 Q28.1563,176.4681 27.5313,176.4681 Q26.1875,176.4681 25.5,177.5463 Q24.8125,178.6088 24.8125,180.7025 Q24.8125,182.7963 25.5,183.8744 Q26.1875,184.9369 27.5313,184.9369 Q28.1563,184.9369 28.75,184.6713 Q29.3438,184.39 29.9688,183.8119 L29.9688,186.5306 Z " fill="#000000"/><text fill="#000000" font-family="sans-serif" font-size="14" lengthAdjust="spacing" textLength="77" x="41" y="185.7367">Workspace</text><line style="stroke:#181818;stroke-width:0.5;" x1="13" x2="120" y1="196.89" y2="196.89"/><line style="stroke:#181818;stroke-width:0.5;" x1="13" x2="120" y1="204.89" y2="204.89"/></g><!--class Dashboard--><g id="elem_Dashboard"><rect fill="#F1F1F1" height="48" id="Dashboard" rx="2.5" ry="2.5" style="stroke:#181818;stroke-width:0.5;" width="108" x="12.5" y="273.89"/><ellipse cx="27.5" cy="289.89" fill="#ADD1B2" rx="11" ry="11" style="stroke:#181818;stroke-width:1.0;"/><path d="M30.4688,295.5306 Q29.8906,295.8275 29.25,295.9681 Q28.6094,296.1244 27.9063,296.1244 Q25.4063,296.1244 24.0781,294.4838 Q22.7656,292.8275 22.7656,289.7025 Q22.7656,286.5775 24.0781,284.9213 Q25.4063,283.265 27.9063,283.265 Q28.6094,283.265 29.25,283.4213 Q29.9063,283.5775 30.4688,283.8744 L30.4688,286.5931 Q29.8438,286.015 29.25,285.7494 Q28.6563,285.4681 28.0313,285.4681 Q26.6875,285.4681 26,286.5463 Q25.3125,287.6088 25.3125,289.7025 Q25.3125,291.7963 26,292.8744 Q26.6875,293.9369 28.0313,293.9369 Q28.6563,293.9369 29.25,293.6713 Q29.8438,293.39 30.4688,292.8119 L30.4688,295.5306 Z " fill="#000000"/><text fill="#000000" font-family="sans-serif" font-size="14" lengthAdjust="spacing" textLength="76" x="41.5" y="294.7367">Dashboard</text><line style="stroke:#181818;stroke-width:0.5;" x1="13.5" x2="119.5" y1="305.89" y2="305.89"/><line style="stroke:#181818;stroke-width:0.5;" x1="13.5" x2="119.5" y1="313.89" y2="313.89"/></g><!--class Dataset--><g id="elem_Dataset"><rect fill="#F1F1F1" height="48" id="Dataset" rx="2.5" ry="2.5" style="stroke:#181818;stroke-width:0.5;" width="86" x="23.5" y="491.89"/><ellipse cx="38.5" cy="507.89" fill="#ADD1B2" rx="11" ry="11" style="stroke:#181818;stroke-width:1.0;"/><path d="M41.4688,513.5306 Q40.8906,513.8275 40.25,513.9681 Q39.6094,514.1244 38.9063,514.1244 Q36.4063,514.1244 35.0781,512.4838 Q33.7656,510.8275 33.7656,507.7025 Q33.7656,504.5775 35.0781,502.9213 Q36.4063,501.265 38.9063,501.265 Q39.6094,501.265 40.25,501.4213 Q40.9063,501.5775 41.4688,501.8744 L41.4688,504.5931 Q40.8438,504.015 40.25,503.7494 Q39.6563,503.4681 39.0313,503.4681 Q37.6875,503.4681 37,504.5463 Q36.3125,505.6088 36.3125,507.7025 Q36.3125,509.7963 37,510.8744 Q37.6875,511.9369 39.0313,511.9369 Q39.6563,511.9369 40.25,511.6713 Q40.8438,511.39 41.4688,510.8119 L41.4688,513.5306 Z " fill="#000000"/><text fill="#000000" font-family="sans-serif" font-size="14" lengthAdjust="spacing" textLength="54" x="52.5" y="512.7367">Dataset</text><line style="stroke:#181818;stroke-width:0.5;" x1="24.5" x2="108.5" y1="523.89" y2="523.89"/><line style="stroke:#181818;stroke-width:0.5;" x1="24.5" x2="108.5" y1="531.89" y2="531.89"/></g><!--class Dataflow--><g id="elem_Dataflow"><rect fill="#F1F1F1" height="48" id="Dataflow" rx="2.5" ry="2.5" style="stroke:#181818;stroke-width:0.5;" width="91" x="21" y="600.89"/><ellipse cx="36" cy="616.89" fill="#ADD1B2" rx="11" ry="11" style="stroke:#181818;stroke-width:1.0;"/><path d="M38.9688,622.5306 Q38.3906,622.8275 37.75,622.9681 Q37.1094,623.1244 36.4063,623.1244 Q33.9063,623.1244 32.5781,621.4838 Q31.2656,619.8275 31.2656,616.7025 Q31.2656,613.5775 32.5781,611.9213 Q33.9063,610.265 36.4063,610.265 Q37.1094,610.265 37.75,610.4213 Q38.4063,610.5775 38.9688,610.8744 L38.9688,613.5931 Q38.3438,613.015 37.75,612.7494 Q37.1563,612.4681 36.5313,612.4681 Q35.1875,612.4681 34.5,613.5463 Q33.8125,614.6088 33.8125,616.7025 Q33.8125,618.7963 34.5,619.8744 Q35.1875,620.9369 36.5313,620.9369 Q37.1563,620.9369 37.75,620.6713 Q38.3438,620.39 38.9688,619.8119 L38.9688,622.5306 Z " fill="#000000"/><text fill="#000000" font-family="sans-serif" font-size="14" lengthAdjust="spacing" textLength="59" x="50" y="621.7367">Dataflow</text><line style="stroke:#181818;stroke-width:0.5;" x1="22" x2="111" y1="632.89" y2="632.89"/><line style="stroke:#181818;stroke-width:0.5;" x1="22" x2="111" y1="640.89" y2="640.89"/></g><!--class ExternalData--><g id="elem_ExternalData"><rect fill="#F1F1F1" height="48" id="ExternalData" rx="2.5" ry="2.5" style="stroke:#181818;stroke-width:0.5;" width="119" x="7" y="725.89"/><ellipse cx="22" cy="741.89" fill="#ADD1B2" rx="11" ry="11" style="stroke:#181818;stroke-width:1.0;"/><path d="M24.9688,747.5306 Q24.3906,747.8275 23.75,747.9681 Q23.1094,748.1244 22.4063,748.1244 Q19.9063,748.1244 18.5781,746.4838 Q17.2656,744.8275 17.2656,741.7025 Q17.2656,738.5775 18.5781,736.9213 Q19.9063,735.265 22.4063,735.265 Q23.1094,735.265 23.75,735.4213 Q24.4063,735.5775 24.9688,735.8744 L24.9688,738.5931 Q24.3438,738.015 23.75,737.7494 Q23.1563,737.4681 22.5313,737.4681 Q21.1875,737.4681 20.5,738.5463 Q19.8125,739.6088 19.8125,741.7025 Q19.8125,743.7963 20.5,744.8744 Q21.1875,745.9369 22.5313,745.9369 Q23.1563,745.9369 23.75,745.6713 Q24.3438,745.39 24.9688,744.8119 L24.9688,747.5306 Z " fill="#000000"/><text fill="#000000" font-family="sans-serif" font-size="14" lengthAdjust="spacing" textLength="87" x="36" y="746.7367">ExternalData</text><line style="stroke:#181818;stroke-width:0.5;" x1="8" x2="125" y1="757.89" y2="757.89"/><line style="stroke:#181818;stroke-width:0.5;" x1="8" x2="125" y1="765.89" y2="765.89"/></g><!--class Report--><g id="elem_Report"><rect fill="#F1F1F1" height="48" id="Report" rx="2.5" ry="2.5" style="stroke:#181818;stroke-width:0.5;" width="79" x="27" y="382.89"/><ellipse cx="42" cy="398.89" fill="#ADD1B2" rx="11" ry="11" style="stroke:#181818;stroke-width:1.0;"/><path d="M44.9688,404.5306 Q44.3906,404.8275 43.75,404.9681 Q43.1094,405.1244 42.4063,405.1244 Q39.9063,405.1244 38.5781,403.4838 Q37.2656,401.8275 37.2656,398.7025 Q37.2656,395.5775 38.5781,393.9213 Q39.9063,392.265 42.4063,392.265 Q43.1094,392.265 43.75,392.4213 Q44.4063,392.5775 44.9688,392.8744 L44.9688,395.5931 Q44.3438,395.015 43.75,394.7494 Q43.1563,394.4681 42.5313,394.4681 Q41.1875,394.4681 40.5,395.5463 Q39.8125,396.6088 39.8125,398.7025 Q39.8125,400.7963 40.5,401.8744 Q41.1875,402.9369 42.5313,402.9369 Q43.1563,402.9369 43.75,402.6713 Q44.3438,402.39 44.9688,401.8119 L44.9688,404.5306 Z " fill="#000000"/><text fill="#000000" font-family="sans-serif" font-size="14" lengthAdjust="spacing" textLength="47" x="56" y="403.7367">Report</text><line style="stroke:#181818;stroke-width:0.5;" x1="28" x2="105" y1="414.89" y2="414.89"/><line style="stroke:#181818;stroke-width:0.5;" x1="28" x2="105" y1="422.89" y2="422.89"/></g><!--reverse link Capacity to Workspace--><g id="link_Capacity_Workspace"><path codeLine="1" d="M66.5,116.27 C66.5,136.82 66.5,147.91 66.5,164.6 " fill="none" id="Capacity-backto-Workspace" style="stroke:#181818;stroke-width:1.0;"/><polygon fill="#181818" points="66.5,104.27,62.5,110.27,66.5,116.27,70.5,110.27,66.5,104.27" style="stroke:#181818;stroke-width:1.0;"/></g><!--reverse link Workspace to Dashboard--><g id="link_Workspace_Dashboard"><path codeLine="6" d="M66.5,225.37 C66.5,243.21 66.5,255.64 66.5,273.46 " fill="none" id="Workspace-backto-Dashboard" style="stroke:#181818;stroke-width:1.0;"/><polygon fill="#181818" points="66.5,213.37,62.5,219.37,66.5,225.37,70.5,219.37,66.5,213.37" style="stroke:#181818;stroke-width:1.0;"/></g><!--reverse link Dataset to Dataflow--><g id="link_Dataset_Dataflow"><path codeLine="7" d="M66.5,552.37 C66.5,570.21 66.5,582.64 66.5,600.46 " fill="none" id="Dataset-backto-Dataflow" style="stroke:#181818;stroke-width:1.0;"/><polygon fill="#181818" points="66.5,540.37,62.5,546.37,66.5,552.37,70.5,546.37,66.5,540.37" style="stroke:#181818;stroke-width:1.0;"/></g><!--reverse link Dataflow to ExternalData--><g id="link_Dataflow_ExternalData"><path codeLine="8" d="M66.5,661.31 C66.5,683.2 66.5,703.69 66.5,725.55 " fill="none" id="Dataflow-backto-ExternalData" style="stroke:#181818;stroke-width:1.0;"/><polygon fill="#181818" points="66.5,649.31,62.5,655.31,66.5,661.31,70.5,655.31,66.5,649.31" style="stroke:#181818;stroke-width:1.0;"/><text fill="#000000" font-family="sans-serif" font-size="13" lengthAdjust="spacing" textLength="109" x="67.5" y="691.9569">PowerBi Gateway</text></g><!--reverse link Report to Dataset--><g id="link_Report_Dataset"><path codeLine="9" d="M66.5,443.37 C66.5,461.21 66.5,473.64 66.5,491.46 " fill="none" id="Report-backto-Dataset" style="stroke:#181818;stroke-width:1.0;"/><polygon fill="#181818" points="66.5,431.37,62.5,437.37,66.5,443.37,70.5,437.37,66.5,431.37" style="stroke:#181818;stroke-width:1.0;"/></g><!--reverse link Dashboard to Report--><g id="link_Dashboard_Report"><path codeLine="11" d="M66.5,334.37 C66.5,352.21 66.5,364.64 66.5,382.46 " fill="none" id="Dashboard-backto-Report" style="stroke:#181818;stroke-width:1.0;"/><polygon fill="#181818" points="66.5,322.37,62.5,328.37,66.5,334.37,70.5,328.37,66.5,322.37" style="stroke:#181818;stroke-width:1.0;"/></g><!--SRC=[JOmn3i8m40JxUuLhf7o0aWJH8Xhg9Hn9HC9PvqF6lySO4jBjZdQdXaSxM7ARgd9dqNl8dQcUyTQr_hck4q-YQKs2YQ9ZekLUP0r2Vn7ebHeO0jkF6cwZH9f3eVkNiJumVc0s7YMoxWPtW754eXDxqVy_kuWMVS7VnHi0]--></g></svg>